<svg width="27" height="27" viewBox="0 0 27 27" xmlns="http://www.w3.org/2000/svg">
  <defs>
    <radialGradient id="bgGradient" cx="0.3" cy="0.3" r="1">
      <stop offset="0%" stop-color="#1E1E2A"/>
      <stop offset="100%" stop-color="#0A0A12"/>
    </radialGradient>
  </defs>
  <circle cx="13.5" cy="13.5" r="13.5" fill="url(#bgGradient)" />
  <path
    fill="#FFFFFF"
    d="M13.5 5.4c-4.7 0-8.5 3.8-8.5 8.5 0 3.8 2.5 7.1 6 8.2.4.1.5-.2.5-.4v-1.6c-2.4.5-3-.9-3-.9-.4-1.1-.9-1.4-.9-1.4-.8-.5.1-.5.1-.5.9.1 1.4.9 1.4.9.8 1.3 2 1 2.5.7.1-.6.3-1 .5-1.2-2-.2-4.1-1-4.1-4.5 0-1 .4-1.8 1-2.5-.1-.2-.4-1 .1-2 0 0 .8-.2 2.5 1 .7-.2 1.4-.3 2.2-.3s1.5.1 2.2.3c1.7-1.2 2.5-1 2.5-1 .5 1 .2 1.8.1 2 .6.7 1 1.5 1 2.5 0 3.5-2.1 4.3-4.1 4.5.3.3.5.8.5 1.5v2.2c0 .2.1.5.5.4 3.6-1.1 6-4.4 6-8.2-.1-4.7-3.9-8.5-8.6-8.5z"
  />
</svg>
