<svg width="27" height="24" viewBox="0 0 27 24" xmlns="http://www.w3.org/2000/svg">
  <!-- Vapor (trazos sólidos, centrados) -->
  <path d="M15.2 4.2c.9.8.9 1.6-.1 2.3-1 .7-2.4 1-3.7.5.2-.4.4-.7.5-.9 1.1.3 2-.1 2.6-.5.6-.4.6-.8.1-1.4h.6Z" fill="#EA2D2E"/>
  <path d="M13.5 2.3c.7.7.7 1.4-.1 2-1 .7-2.2 1-3.4.5l.5-.9c.8.2 1.5 0 2.1-.3.5-.3.5-.7.1-1.2l.8-.1Z" fill="#EA2D2E"/>
  <!-- Taza (sólida, centrada) -->
  <path d="M6.2 11.6h12.6v1.3c0 2.4-2 3.9-6.3 3.9S6.2 15.3 6.2 12.9v-1.3Zm12 .6h2.1c1.7 0 2.7 1.1 2.7 2.3s-1 2.3-2.7 2.3h-1.2v-1.1h1.1c.9 0 1.5-.5 1.5-1.2s-.6-1.2-1.5-1.2H18.2v-1.1Z" fill="#007396"/>
  <!-- Platillo (base) -->
  <path d="M4.6 18.8c3 1.3 10 1.6 13.8.9 1.2-.2 2.2-.4 3-.7l.8 1c-.9.4-2.1.7-3.5.9-4.3.6-11.2.4-15-1.2l.9-.9Z" fill="#007396"/>
</svg>
