<svg width="27" height="24" viewBox="0 0 256 255" xmlns="http://www.w3.org/2000/svg">
  <g>
    <path fill="#3776AB" d="M126.9 0c-10.6 0-20.7 1-29.6 2.8-26.2 4.9-31 15.1-31 34.1v25.1h62.1v8.4H66.3c-18.9 0-35.5 11.3-40.7 32.8-6 24.9-6.3 40.5 0 66.4 4.6 19.1 15.6 32.8 34.5 32.8h22.3v-29.7c0-21.5 18.7-40.4 40.7-40.4h63.9c18.1 0 31.9-14.8 31.9-32.9V36.9c0-17.5-14.9-30.6-31.9-34.1C167.4 1.1 137.4 0 126.9 0zm-33.5 20.2c6.7 0 12.1 5.5 12.1 12.2 0 6.8-5.4 12.2-12.1 12.2-6.6 0-12.1-5.4-12.1-12.2 0-6.7 5.5-12.2 12.1-12.2z"/>
    <path fill="#FFD43B" d="M231.3 70.4v29.7c0 22.5-19.1 41.4-40.7 41.4h-63.9c-17.5 0-31.9 15-31.9 32.9v61.8c0 17.5 15.2 27.8 31.9 32.9 20.2 6 39.7 7 63.9 0 16.1-4.7 31.9-14.2 31.9-32.9v-25.1h-62.1v-8.4h62.1c18.9 0 25.9-13.1 31-32.8 6.5-25.3 6.2-41.2 0-66.4-4.6-18.6-12.1-32.8-31-32.8h-20.6v-.3h0zm-42.7 157.8c6.7 0 12.1 5.5 12.1 12.2 0 6.8-5.4 12.2-12.1 12.2-6.6 0-12.1-5.4-12.1-12.2 0-6.7 5.5-12.2 12.1-12.2z"/>
  </g>
</svg>
